<?xml version="1.0" encoding="UTF-8"?>
<svg width="512pt" height="512pt" version="1.1" viewBox="0 0 512 512" xmlns="http://www.w3.org/2000/svg">
 <path fill="white" d="m285.48 105.59c-40.934 0-74.324 31.621-77.402 71.766-0.082031 30.938-0.46094 72.148-0.39062 103.07h-187.09v106.19h14.004v0.19531c0 6.1602 4.9258 11.086 11.086 11.086h27.422c6.1602 0 11.086-4.9258 11.086-11.086v-0.19531h239.99v0.19531c0 6.1602 4.9258 11.086 11.086 11.086h27.422c6.1602 0 11.086-4.9258 11.086-11.086v-0.19531h17.113v-17.699h17.891l6.418-16.727c0.79688-0.64453 1.5391-1.3086 1.9453-2.332l69.043-173.68c1.2578-3.1602-0.33984-6.7188-3.5-7.9727l-6.0312-2.332c-0.78906-0.3125-1.5352-0.60156-2.332-0.58203-2.3945 0.050781-4.6992 1.5195-5.6406 3.8906l-2.7227 6.8086h-5.4453c-5.6016 0 0.15625-1.9062-6.2227 12.445 0 0-26.84 87.129-33.062 99.574-6.2266 12.445-24.895 12.445-24.895-6.2266v-31.117c-6.2227-12.445-12.445-12.445-18.672 0v29.754h-14.391c0.13281-35.887 0.042968-72.938-0.39062-103.07-3.082-40.141-36.473-71.762-77.402-71.762zm-1.168 64.176c6.875 0 12.445 5.5742 12.445 12.445 0 6.875-5.5742 12.445-12.445 12.445-6.875 0-12.445-5.5742-12.445-12.445 0-6.875 5.5742-12.445 12.445-12.445zm0 30.34 0.19531 3.3047-2.5273 0.19531-0.19531-3.3047zm1.5547 0 2.5273 0.19531v3.3047l-2.7227-0.19531zm-5.6406 0.39063 0.58203 3.1133-2.7227 0.39062-0.39062-3.1133 2.5273-0.39062zm9.7227 0 2.7227 0.39062-0.58203 3.1133-2.5273-0.39062 0.39062-3.1133zm-13.613 0.58203 0.58203 3.1133-2.5273 0.58203-0.77734-3.1133zm17.699 0 2.5273 0.77734-0.77734 3.1133-2.5273-0.77734zm-21.781 0.97266 1.168 3.1133-2.5273 0.77734-1.168-2.918zm25.672 0.19531 2.5273 0.77734-0.97266 3.1133-2.5273-0.97266zm-29.562 1.3633 1.3633 2.918-2.332 1.168-1.3633-2.918zm33.645 0.19531 2.1406 0.97266-1.168 2.918-2.5273-0.97266zm-37.34 1.5547 1.75 2.7227-2.332 1.3633-1.5547-2.7227 2.1406-1.3633zm40.84 0.19531 2.332 1.3633-1.75 2.918-2.1406-1.5547 1.5547-2.7227zm-44.344 2.1406 1.9453 2.5273-2.1406 1.5547-1.75-2.7227 1.9453-1.3633zm47.844 0.19531 2.1406 1.3633-1.9453 2.7227-2.1406-1.5547 1.9453-2.5273zm-51.148 2.332 2.332 2.1406-2.1406 1.9453-1.9453-2.5273 1.75-1.5547zm54.457 0.19531 1.9453 1.75-2.1406 2.332-1.9453-1.75zm-57.371 2.5273 2.332 2.1406-1.75 1.9453-2.332-2.1406zm60.289 0.19531 1.75 1.9453-2.332 2.1406-1.75-1.9453zm-63.012 2.918 2.5273 1.9453-1.5547 2.1406-2.5273-1.9453zm65.734 0.39062 1.5547 1.9453-2.5273 1.9453-1.5547-2.1406zm-68.07 2.918 2.7227 1.75-1.3633 2.332-2.7227-1.75zm70.402 0.39062 1.3633 2.1406v0.19531l-2.1406 1.168-0.58203 0.39063v-0.19531h-0.19531l-1.168-2.1406 2.7227-1.5547zm-72.543 3.3047 2.918 1.3633-0.97266 2.332-2.918-1.3633zm36.172 0c6.0977-0.51562 12.398 1.8789 16.531 7 4.6133 5.7227 5.2773 13.34 2.5273 19.645l36.172 44.926c2.668 3.3125 2.1445 8.2227-1.168 10.891l-1.5547 1.168c-3.3125 2.668-8.2227 2.1445-10.891-1.168l-21.395-26.645-0.39062 0.19531-1.3633 0.58203-1.3633-2.918 0.97266-0.39062-12.641-15.754c-6.7695 1.3906-14.035-0.85938-18.672-6.6133-6.6094-8.1992-5.2812-20.23 2.918-26.84 3.0742-2.4766 6.6484-3.7734 10.309-4.0859zm38.312 0.19531 1.168 2.1406v0.39062l-2.918 1.168v-0.19531l-1.168-2.1406zm-76.043 3.5 3.1133 1.168-1.168 2.332-2.918-1.168zm77.793 0.39062 0.77734 2.1406 0.19531 0.19531v0.19531l-3.1133 0.77734-0.97266-2.332 3.1133-0.97266zm-79.156 3.5 3.1133 0.77734-0.58203 2.5273-3.1133-0.77734zm80.32 0.39062 0.58203 2.332h0.19531v0.39062l-3.3047 0.39063v-0.19531l-0.58203-2.1406 3.1133-0.77734zm-81.098 3.6953 3.1133 0.39062-0.39062 2.7227-3.1133-0.58203 0.39062-2.5273zm82.07 0.19531 0.39062 2.5273v0.39062h-2.7227l-0.58203 0.19531v-0.19531l-0.39062-2.332 3.3047-0.58203zm-82.656 3.8906h3.1133v2.7227l-3.3047-0.19531 0.19531-2.5273zm83.043 0.19531 0.19531 2.7227h2.332l-3.5 4.2773-4.4727-3.8906 2.332-0.19531v-2.7227l3.1133-0.19531zm-79.934 3.6953 0.19531 2.5273-3.3047 0.19531v-2.5273l3.1133-0.19531zm0.19531 3.8906 0.39062 2.5273-3.1133 0.58203-0.39062-2.7227 3.1133-0.39062zm0.77734 3.6953 0.58203 2.5273-3.1133 0.77734-0.58203-2.5273zm0.97266 3.6953 0.97266 2.5273-3.1133 0.97266-0.97266-2.5273zm1.3633 3.5 1.168 2.332-2.918 1.3633-1.168-2.332zm1.75 3.3047 1.3633 2.332-2.7227 1.5547-1.5547-2.1406 2.918-1.75zm1.9453 3.3047 1.5547 2.1406-2.5273 1.75-1.5547-1.9453zm2.5273 2.918 1.5547 1.9453-2.332 2.1406-1.75-1.75 2.5273-2.332zm2.5273 2.7227 1.75 1.75h0.19531l-0.97266 1.3633-1.168 0.97266-1.9453-1.75 2.1406-2.332zm2.918 2.5273 1.9453 1.3633v0.19531l-1.75 2.5273h-0.19531l-1.9453-1.5547 1.9453-2.5273zm3.1133 2.1406 1.9453 1.168 0.19531 0.19531-1.3633 2.7227h-0.39062v-0.19531l-1.9453-1.168 1.5547-2.7227zm3.3047 1.9453 1.9453 0.97266h0.39063l-1.168 3.1133-0.39062-0.19531h-0.19531l-1.9453-0.97266zm31.895 0.97266 1.3633 2.918-0.97266 0.39062-1.5547 0.58203-1.168-3.1133 1.5547-0.39062v-0.19531l0.77734-0.19531zm-28.395 0.39062 2.1406 0.77734h0.19531l-0.77734 3.1133h-0.39062l-2.332-0.77734 1.168-3.1133zm24.895 0.77734 0.97266 3.1133-0.77734 0.19531-1.9453 0.58203-0.77734-3.1133 1.75-0.58203h0.19531zm-21.395 0.58203 2.1406 0.39062h0.19531l0.19531 0.19531-0.39062 3.1133h-0.58594v-0.19531l-2.332-0.39062zm17.699 0.39062 0.77734 3.1133-0.58203 0.19531h-0.19531l-1.9453 0.39062-0.58203-3.3047 1.9453-0.19531h0.19531l0.39062-0.19531zm-13.809 0.39062 2.1406 0.19531h0.19531l-0.19531 3.3047h-0.39062l-2.332-0.39062 0.58203-3.1133zm9.5312 0.19531h0.58594l0.39063 3.3047h-2.7266l-0.19531-3.1133 1.9453-0.19531zm-5.8359 0.19531h2.5273v3.3047h-0.19531l-2.332-0.19531v-3.1133zm49.98 13.031c-1.5938-0.17188-3.3203 0.27734-4.668 1.3633-2.6953 2.1719-2.9492 6.0586-0.77734 8.75 2.1719 2.6953 6.0586 3.1445 8.75 0.97266 2.6953-2.1719 3.1445-6.0586 0.97266-8.75-1.0859-1.3477-2.6836-2.1641-4.2773-2.332zm-297.17 4.0859h224.04v6.2227h-224.04zm242.71 28.004v12.445h24.895v12.445h-24.895v12.445l-18.672-18.672 18.672-18.672zm-222.49 9.1406 0.77734 3.6953-1.9453 0.39062-0.58203-3.6953zm44.344 0 0.58203 3.6953-1.9453 0.39062-0.58203-3.6953zm-37.73 0.39063h0.19531l0.19531 0.19531h0.19531l1.5547 0.58203-1.5547 3.6953-1.5547-0.77734 0.39062-0.77734 0.58203-2.918zm44.148 0h0.19531l0.19531 0.19531h0.19531l1.5547 0.58203-1.5547 3.6953-1.5547-0.77734 0.39062-0.77734 0.58203-2.918zm-58.539 2.7227 1.75 2.5273 0.58203 0.58203-1.168 1.168-2.7227-2.7227 1.168-1.3633h0.19531l0.19531-0.19531zm44.148 0 1.75 2.5273 0.58203 0.58203v0.19531l-1.168 0.97266-2.7227-2.7227 1.168-1.3633h0.19531l0.19531-0.19531zm-22.367 1.9453 0.97266 0.97266 0.39063 0.77734-3.1133 2.1406-0.39062-0.77734-0.58203-0.58203 2.7227-2.5273zm44.148 0 0.97266 0.97266 0.39062 0.77734-3.1133 2.1406-0.39062-0.77734-0.58203-0.58203 2.7227-2.5273zm-71.18 5.0547 3.6953 1.5547-0.39062 0.58203v0.19531h-0.19531v0.58203l-3.8906-0.77734 0.19531-0.77734 0.19531-0.19531v-0.19531l0.39062-0.97266zm44.148 0 3.6953 1.5547-0.39062 0.58203v0.19531l-0.19531 0.58203-3.6953-0.77734 0.19531-0.77734v-0.39062l0.39062-0.97266zm-13.031 2.5273 0.19531 1.9453v0.39062h-2.5273l-1.168 0.19531v-0.39063l-0.39062-1.3633zm44.148 0 0.19531 1.9453 0.19531 0.19531v0.19531h-2.7227l-1.168 0.19531v-0.39063l-0.39062-1.3633zm-72.348 5.25 0.19531 1.3633v0.19531l0.19531 0.19531-0.77734 0.19531-2.918 1.168v-0.19531l-0.19531-0.19531v-0.19531l-0.39062-1.75 3.8906-0.77734zm44.148 0 0.19531 1.3633 0.19531 0.19531v0.19531l-0.77734 0.19531-2.918 1.168v-0.19531l-0.19531-0.19531v-0.19531l-0.39062-1.75 3.8906-0.77734zm-20.031 1.9453 3.5 1.5547-0.77734 1.75-3.6953-1.3633 0.97266-1.9453zm44.148 0 3.5 1.5547-0.77734 1.75-3.5-1.3633 0.77734-1.9453zm-65.535 4.0664 1.168 1.3633-2.7227 2.7227-1.3633-1.3633zm19.254 0 2.7227 2.7227-1.3633 1.3633-2.7227-2.7227zm24.895 0 1.168 1.3633-2.7227 2.7227-1.3633-1.3633zm19.254 0 2.7227 2.7227-1.3633 1.3633-2.7227-2.7227zm-57.762 3.8906 0.19531 0.19531h0.19531l0.97266 0.19531-0.77734 3.8906-1.3633-0.39062h-0.39062l-0.39062-0.39062 1.5547-3.5zm7.7812 0 1.5547 3.5-0.77734 0.39062h-0.39062l-0.97266 0.39062-0.77734-3.8906h0.77734l0.19531-0.19531h0.19531zm36.367 0 0.19531 0.19531h0.19531l0.97266 0.19531-0.77734 3.8906-1.3633-0.39062h-0.39062l-0.39063-0.39062 1.5547-3.5zm7.7812 0 1.5547 3.5-0.77734 0.39062h-0.39062l-0.97266 0.39062-0.77734-3.8906h0.77734l0.19531-0.19531h0.19531z"/>
</svg>
